<?xml version="1.0" encoding="utf-8"?>
<!-- Generator: Adobe Illustrator 24.3.0, SVG Export Plug-In . SVG Version: 6.00 Build 0)  -->
<svg version="1.1" id="Layer_1" xmlns="http://www.w3.org/2000/svg" xmlns:xlink="http://www.w3.org/1999/xlink" x="0px" y="0px"
	 viewBox="0 0 185 185" style="enable-background:new 0 0 185 185;" xml:space="preserve">
<style type="text/css">
	.st0{fill:#FFFFFF;}
	.st1{fill:#98999D;}
</style>
<g>
	<path class="st0" d="M185,92.5c0-19.7,0-39.4,0-59c0-5.3-1-10.3-3.5-14.9c-6.3-11.9-16.3-18.4-29.8-18.5C112.2-0.1,72.8,0,33.4,0
		c-2.1,0-4.2,0.2-6.3,0.6C19.8,2.1,13.7,5.6,8.7,11.1c-5.6,6.2-8.6,13.5-8.6,21.8C0,72.7,0,112.5,0,152.4c0,2.2,0.3,4.3,0.8,6.4
		c1.7,7.3,5.3,13.4,11,18.3c6,5.1,12.9,7.9,20.7,7.9c40,0.1,80,0,120,0c5.3,0,10.4-1.3,15-4c11.4-6.7,17.4-16.6,17.5-29.9
		C185,131.6,185,112,185,92.5z"/>
	<path class="st1" d="M185,92.5c0,19.5,0,39,0,58.6c0,13.3-6.1,23.3-17.5,29.9c-4.6,2.7-9.7,4-15,4c-40,0-80,0-120,0
		c-7.8,0-14.7-2.9-20.7-7.9c-5.7-4.8-9.3-11-11-18.3c-0.5-2.1-0.8-4.2-0.8-6.4c0-39.8-0.1-79.7,0-119.5c0-8.3,3-15.6,8.6-21.8
		c5-5.5,11.2-9,18.4-10.4C29.2,0.2,31.3,0,33.4,0c39.4,0,78.8-0.1,118.2,0.1c13.5,0.1,23.5,6.5,29.8,18.5c2.5,4.6,3.5,9.6,3.5,14.9
		C185,53.2,185,72.8,185,92.5z M172.9,172.1c0.1,0,0.3,0,0.1-0.2C173,171.9,173,172,172.9,172.1c-0.2,0-0.2,0.1-0.2,0.2
		c-0.6,0-0.8,0.4-1.2,0.7c-1,0.8-1.9,1.6-2.9,2.3c-5.5,3.2-11.4,5.2-17.8,5.2c-39,0-77.9,0-116.9,0c-4,0-7.9-0.6-11.6-2.2
		c-10.7-4.5-17.7-14.6-17.8-26.2c-0.1-39.6,0-79.2,0-118.8c0-2.3,0.3-4.5,0.9-6.8c1.5-5.9,4.5-10.8,9-14.8
		c5.2-4.6,11.3-7.1,18.2-7.1c39.8-0.1,79.7,0,119.5,0c3.3,0,6.4,0.6,9.5,1.8c11.7,4.5,18.9,15,18.9,27.5c0,38.7,0,77.4,0,116.2
		c0,2.7,0.2,5.3-0.3,8c0,0.2-0.2,0.6,0.3,0.8c0.8-2.4,1-5,1-7.4c0-39.2,0-78.5,0-117.7c0-3.7-0.6-7.4-2-10.9
		c-4.9-12-15.6-19.2-28.6-19.2c-38.9,0-77.8,0-116.8,0c-5.2,0-10.1,1-14.6,3.6C9.5,12.8,3.8,21.4,3.8,33c-0.1,39.8-0.1,79.5,0,119.3
		c0,7.6,2.8,14.2,8,19.7c5.5,5.9,12.4,9.4,20.4,9.4c40.2,0.1,80.4,0.1,120.6,0.1c1.6,0,3.2-0.2,4.8-0.5c4.4-0.9,8.4-2.7,11.9-5.5
		c1.2-0.9,2.6-1.6,3.2-3.1C172.9,172.3,172.9,172.2,172.9,172.1z M179.2,93.8c0-20,0-40.1,0-60.1c0-3.3-0.5-6.4-1.6-9.5
		c-3.8-10.7-14.2-18.3-26-18.3c-39.4,0-78.7,0-118.1,0c-2.8,0-5.5,0.3-8.2,1.2C13.5,10.8,5.8,21.3,5.8,33.7c0,39.2,0,78.3,0,117.5
		c0,3.5,0.5,6.8,1.8,10.1c4,10.7,14,17.9,25.4,17.9c38.8,0.1,77.5,0,116.3,0c6.1,0,11.8-1.4,17.1-4.3c5.9-3.3,10.1-8.1,12-14.7
		c0.9-3.1,0.9-6.3,0.8-9.5C179.2,131.7,179.2,112.8,179.2,93.8z M180,159.5L180,159.5L180,159.5L180,159.5z"/>
	<path class="st0" d="M179.2,93.8c0,19,0,37.9,0,56.9c0,3.2,0.1,6.4-0.8,9.5c-1.9,6.6-6.1,11.4-12,14.7c-5.3,3-11,4.3-17.1,4.3
		c-38.8,0-77.5,0.1-116.3,0c-11.4,0-21.4-7.2-25.4-17.9c-1.2-3.2-1.8-6.6-1.8-10.1c0-39.2,0-78.3,0-117.5c0-12.4,7.7-23,19.5-26.7
		c2.6-0.8,5.4-1.2,8.2-1.2c39.4,0,78.7,0,118.1,0c11.8,0,22.2,7.6,26,18.3c1.1,3.1,1.6,6.2,1.6,9.5
		C179.2,53.7,179.2,73.8,179.2,93.8z M92.7,33.3c-32.6-0.2-59.4,26.4-59.4,59.2c0,32.6,26.3,59.3,59.2,59.2
		c33,0,58.8-26.5,59.2-58.4C152.2,59.9,124.9,33.2,92.7,33.3z M19.6,168.2c-0.4,0.9,0.2,1.2,0.7,1.6c3.9,2.9,8.4,4.3,13.2,4.3
		c35.9,0,71.7,0,107.6,0c0.4,0,0.7,0,1.1,0c0.4-0.1,0.9-0.2,0.9-0.8c-0.4-0.7-1.1-0.5-1.7-0.5c-34.8,0-69.5,0-104.3,0
		c-1.5,0-3-0.1-4.5-0.1c-4.3-0.2-8.2-1.5-11.7-4.1C20.6,168.3,20.2,168,19.6,168.2z M11.8,57.6c-1,0.4-0.8,1.2-0.8,1.9
		c0,25.8,0,51.5,0,77.3c0,0.3,0,0.6,0,1c0,0.5,0.2,0.9,0.7,1c0.9-0.3,0.7-1,0.7-1.7c0-17.1,0-34.2,0-51.2c0-8.8,0-17.5,0-26.3
		C12.5,58.8,12.6,58.1,11.8,57.6z M129.5,11.7c0.3,0.8,1,0.7,1.6,0.7c7,0,13.9,0,20.9,0c5.3,0,9.9,2,13.8,5.5
		c4.6,4.2,6.8,9.6,6.9,15.8c0,5.8,0,11.7,0,17.5c0,0.6-0.2,1.2,0.6,1.5c0.8-0.2,0.7-0.9,0.7-1.6c0-6,0-12.1,0-18.1
		c0-1.1-0.1-2.2-0.3-3.3c-1.1-5.6-3.7-10.3-8.2-13.8c-3.6-2.9-7.7-4.7-12.3-4.8c-7.5-0.2-15-0.1-22.6-0.1
		C130.2,11,129.7,11,129.5,11.7z M66.4,11.6c-0.3-0.8-1-0.6-1.6-0.6c-9.6,0-19.3,0-28.9,0c-2,0-4.1-0.1-6.1,0.3
		c-3.7,0.6-6.9,2.1-9.9,4.2c-0.5,0.4-0.8,0.9-0.1,1.4c0.1,0,0.3,0,0.4-0.1c0.3-0.2,0.7-0.4,1-0.6c3.7-2.6,7.8-3.9,12.3-3.9
		c7,0.1,13.9,0,20.9,0c3.5,0,7,0,10.4,0C65.5,12.4,66.2,12.4,66.4,11.6z"/>
	<path class="st0" d="M172.7,172.3c-0.6,1.5-2.1,2.1-3.2,3.1c-3.5,2.8-7.5,4.6-11.9,5.5c-1.6,0.3-3.1,0.5-4.8,0.5
		c-40.2,0-80.4,0.1-120.6-0.1c-8.1,0-14.9-3.5-20.4-9.4c-5.2-5.5-8-12.1-8-19.7c0-39.8-0.1-79.5,0-119.3c0-11.6,5.7-20.1,15.7-25.8
		c4.5-2.6,9.5-3.6,14.6-3.6c38.9,0,77.8,0,116.8,0c13,0,23.7,7.1,28.6,19.2c1.4,3.5,2,7.1,2,10.9c0,39.2,0,78.5,0,117.7
		c0,2.5-0.2,5-1,7.4c-0.5-0.2-0.3-0.5-0.3-0.8c0.5-2.7,0.3-5.3,0.3-8c0-38.7,0-77.4,0-116.2c0-12.6-7.1-23-18.9-27.5
		c-3-1.2-6.2-1.8-9.5-1.8c-39.8,0-79.7,0-119.5,0c-6.9,0-13,2.6-18.2,7.1c-4.6,4-7.5,8.9-9,14.8c-0.6,2.2-0.9,4.5-0.9,6.8
		c0,39.6-0.1,79.2,0,118.8c0,11.6,7.1,21.7,17.8,26.2c3.7,1.6,7.6,2.2,11.6,2.2c39,0,77.9,0,116.9,0c6.4,0,12.3-2,17.8-5.2
		c1.1-0.6,1.9-1.5,2.9-2.3C171.9,172.7,172.2,172.3,172.7,172.3C172.7,172.3,172.7,172.3,172.7,172.3z"/>
	<polygon class="st0" points="180,159.5 180,159.4 180.1,159.4 	"/>
	<path class="st0" d="M172.9,172.1c0-0.1,0.1-0.1,0.1-0.2C173.2,172,173.1,172,172.9,172.1L172.9,172.1z"/>
	<path class="st0" d="M172.9,172.1c0,0.2-0.1,0.2-0.2,0.2c0,0,0,0,0,0C172.7,172.1,172.8,172.1,172.9,172.1
		C172.9,172.1,172.9,172.1,172.9,172.1z"/>
	<path class="st1" d="M92.7,33.3c32.3-0.2,59.6,26.5,59.1,60c-0.4,32-26.2,58.4-59.2,58.4c-32.9,0-59.2-26.6-59.2-59.2
		C33.3,59.8,60.1,33.1,92.7,33.3z M148.1,92.6c0.2-30.3-24.4-55.5-55.1-55.7c-31.4-0.2-56.1,25-56.1,55.6
		c0.1,31.7,25.8,55.6,55.6,55.6C123.4,148.1,148.2,122.8,148.1,92.6z"/>
	<path class="st1" d="M19.6,168.2c0.6-0.3,1,0,1.4,0.3c3.5,2.6,7.3,3.9,11.7,4.1c1.5,0.1,3,0.1,4.5,0.1c34.8,0,69.5,0,104.3,0
		c0.6,0,1.3-0.2,1.7,0.5c-0.1,0.6-0.5,0.7-0.9,0.8c-0.4,0-0.7,0-1.1,0c-35.9,0-71.7,0-107.6,0c-4.9,0-9.3-1.4-13.2-4.3
		C19.8,169.5,19.2,169.1,19.6,168.2z"/>
	<path class="st1" d="M11.8,57.6c0.8,0.5,0.7,1.2,0.7,1.8c0,8.8,0,17.5,0,26.3c0,17.1,0,34.2,0,51.2c0,0.7,0.2,1.4-0.7,1.7
		c-0.5-0.1-0.7-0.5-0.7-1c0-0.3,0-0.6,0-1c0-25.8,0-51.5,0-77.3C11,58.8,10.8,58,11.8,57.6z"/>
	<path class="st1" d="M129.5,11.7c0.2-0.7,0.7-0.6,1.2-0.6c7.5,0,15-0.1,22.6,0.1c4.6,0.1,8.7,1.9,12.3,4.8
		c4.5,3.6,7.1,8.2,8.2,13.8c0.2,1.1,0.3,2.2,0.3,3.3c0,6,0,12.1,0,18.1c0,0.6,0.1,1.3-0.7,1.6c-0.8-0.3-0.6-0.9-0.6-1.5
		c0-5.8,0-11.7,0-17.5c0-6.2-2.3-11.6-6.9-15.8c-3.9-3.6-8.5-5.5-13.8-5.5c-7,0-13.9,0-20.9,0C130.5,12.4,129.8,12.5,129.5,11.7z"/>
	<path class="st1" d="M66.4,11.6c-0.2,0.9-0.9,0.8-1.5,0.8c-3.5,0-7,0-10.4,0c-7,0-13.9,0-20.9,0c-4.6,0-8.6,1.3-12.3,3.9
		c-0.3,0.2-0.7,0.4-1,0.6c-0.1,0.1-0.2,0-0.4,0.1c-0.7-0.5-0.5-1,0.1-1.4c3-2.2,6.2-3.7,9.9-4.2c2-0.3,4.1-0.3,6.1-0.3
		c9.6,0,19.3,0,28.9,0C65.4,11,66,10.8,66.4,11.6z"/>
	<path class="st0" d="M148.1,92.6c0.2,30.2-24.7,55.5-55.5,55.5c-29.8,0-55.5-23.9-55.6-55.6C36.9,61.9,61.6,36.8,93,36.9
		C123.7,37.1,148.3,62.4,148.1,92.6z M126.3,92.5c0-4.2-3.4-7.6-7.4-7.5c-4.1,0-7.4,3.4-7.4,7.5c0,4.2,3.3,7.5,7.4,7.5
		C123.1,100,126.3,96.7,126.3,92.5z M58.7,92.5c0,4.1,3.3,7.5,7.4,7.5c4.2,0,7.5-3.3,7.5-7.5c0-3.8-2.8-7.4-7.6-7.5
		C62,84.9,58.7,88.4,58.7,92.5z M52.5,121.4c-0.4,0.7,0.1,1.1,0.4,1.5c2.9,4.1,6.4,7.7,10.4,10.8c6.5,5,13.8,8.3,21.9,9.8
		c6,1.2,12,1.3,18,0.2c0.6-0.1,1-0.2,1.2-0.9c-0.3-0.7-1-0.5-1.6-0.5c-1.5,0.2-2.9,0.5-4.4,0.6c-11.4,0.6-21.8-2.1-31.4-8.3
		c-5.1-3.4-9.4-7.6-13-12.6C53.6,121.6,53.3,121,52.5,121.4z M54.5,114c-0.4,0.4-0.5,0.7-0.3,1.2c2.2,4.1,4.7,7.9,8.3,11
		c3.9,3.5,8.5,5.9,13.1,8.2c0.4,0,0.6-0.2,0.8-0.5c-0.1-0.8-0.8-1-1.4-1.3c-3.6-1.9-7.2-3.9-10.5-6.5c-3.7-2.9-6.3-6.7-8.6-10.8
		C55.6,114.9,55.4,114.1,54.5,114z"/>
	<path class="st1" d="M126.3,92.5c0,4.2-3.3,7.5-7.4,7.5c-4.2,0-7.4-3.3-7.4-7.5c0-4.2,3.3-7.5,7.4-7.5
		C123,84.9,126.3,88.4,126.3,92.5z"/>
	<path class="st1" d="M58.7,92.5c0-4.1,3.3-7.6,7.3-7.5c4.8,0.1,7.6,3.7,7.6,7.5c0,4.2-3.3,7.5-7.5,7.5C62,100,58.7,96.6,58.7,92.5z
		"/>
	<path class="st1" d="M52.5,121.4c0.8-0.4,1.1,0.2,1.4,0.7c3.6,5,7.9,9.2,13,12.6c9.5,6.3,20,9,31.4,8.3c1.5-0.1,2.9-0.4,4.4-0.6
		c0.6-0.1,1.2-0.3,1.6,0.5c-0.1,0.6-0.6,0.8-1.2,0.9c-6,1-12,0.9-18-0.2c-8.1-1.6-15.3-4.8-21.9-9.8c-4-3.1-7.5-6.7-10.4-10.8
		C52.5,122.5,52.1,122.1,52.5,121.4z"/>
	<path class="st1" d="M54.5,114c0.9,0.1,1.1,0.8,1.4,1.4c2.3,4.1,4.9,7.8,8.6,10.8c3.2,2.6,6.8,4.6,10.5,6.5
		c0.6,0.3,1.3,0.5,1.4,1.3c-0.2,0.3-0.4,0.5-0.8,0.5c-4.6-2.4-9.2-4.8-13.1-8.2c-3.5-3.1-6.1-7-8.3-11C53.9,114.8,54,114.4,54.5,114
		z"/>
</g>
</svg>
